<?xml version="1.0" encoding="UTF-8"?><svg xmlns="http://www.w3.org/2000/svg" xmlns:xlink="http://www.w3.org/1999/xlink" viewBox="0 0 619.39 1158"><defs><style>.o{fill:#fff;}.p{fill:url(#l);}.q{isolation:isolate;}.r{fill:url(#m);}.s{fill:url(#f);}.t{fill:url(#g);}.u{fill:#1a1717;}.v{fill:url(#i);}.w{fill:url(#h);}.x{fill:url(#d);}.y{fill:url(#e);}.a`{fill:url(#n);}.aa,.ab{fill:#9bd1ca;}.ac{fill:url(#j);}.ad{fill:url(#k);}.ae{fill:#231f20;}.af{opacity:.8;}.af,.ab{mix-blend-mode:darken;}.ag{fill:#00ffdc;}</style><radialGradient id="d" cx="-1125.86" cy="-300.79" fx="-1125.86" fy="-300.79" r="67.98" gradientTransform="translate(1305.77 2321.06) rotate(47.26) scale(1.49)" gradientUnits="userSpaceOnUse"><stop offset=".15" stop-color="#fff"/><stop offset=".44" stop-color="#fcfdfd"/><stop offset=".6" stop-color="#f4f9f8"/><stop offset=".72" stop-color="#e6f2f0"/><stop offset=".83" stop-color="#d3e7e4"/><stop offset=".93" stop-color="#badad6"/><stop offset="1" stop-color="#a4cfc9"/></radialGradient><radialGradient id="e" cx="204.66" cy="246.07" fx="204.66" fy="246.07" r="46.67" gradientTransform="translate(39.85 353.25) rotate(-21.18) scale(1.31)" xlink:href="#d"/><radialGradient id="f" cx="-948.35" cy="-356.23" fx="-948.35" fy="-356.23" r="67.98" gradientTransform="translate(-462.64 2183.56) rotate(132.8) scale(1.49 -1.49)" xlink:href="#d"/><radialGradient id="g" cx="410.54" cy="322.8" fx="410.54" fy="322.8" r="46.67" gradientTransform="translate(838.19 353.25) rotate(-158.82) scale(1.31 -1.31)" xlink:href="#d"/><radialGradient id="h" cx="-158.8" cy="255.17" fx="-158.8" fy="255.17" r="66.29" gradientTransform="translate(491.66 396.12) rotate(-4.56) scale(1.49)" xlink:href="#d"/><radialGradient id="i" cx="-32.19" cy="411.91" fx="-32.19" fy="411.91" r="65.97" gradientTransform="translate(460.3 414.6) rotate(-3.46) scale(1.49)" xlink:href="#d"/><radialGradient id="j" cx="-108.07" cy="393.98" fx="-108.07" fy="393.98" r="57.41" gradientTransform="translate(380.61 453.83) scale(1.49)" xlink:href="#d"/><radialGradient id="k" cx="-113.09" cy="458.36" fx="-113.09" fy="458.36" r="43.89" gradientTransform="translate(380.61 453.83) scale(1.49)" xlink:href="#d"/><radialGradient id="l" cx="-202.07" cy="462.16" fx="-202.07" fy="462.16" r="42.73" gradientTransform="translate(642.61 453.83) scale(1.49) skewX(9.77)" xlink:href="#d"/><radialGradient id="m" cx="7.88" cy="93.53" fx="7.88" fy="93.53" r="100.2" gradientTransform="translate(268.86 497.43) rotate(4.04) scale(1.49)" xlink:href="#d"/><radialGradient id="n" cx="21.2" cy="-146.3" fx="21.2" fy="-146.3" r="252.32" gradientTransform="translate(271.85 463.91) rotate(4.01) scale(1.49 1.46)" xlink:href="#d"/></defs><g class="q"><g id="a"/><g id="b"><g id="c"><g><path class="ae" d="M406.79,621.04l2.19,3.52,2.23,3.66,4.42,7.41c2.92,4.97,5.8,9.97,8.62,15,5.64,10.06,11.07,20.22,16.16,30.46,5.09,10.24,9.86,20.58,13.96,30.92,2.03,5.17,3.9,10.34,5.46,15.43,1.57,5.08,2.78,10.12,3.4,14.65l.07,.53c1.11,8.16,8.63,13.89,16.79,12.79,7.59-1.02,13.06-7.65,12.89-15.12-.18-7.25-1.14-13.85-2.36-20.23-1.24-6.37-2.76-12.51-4.42-18.55-3.36-12.05-7.32-23.67-11.58-35.11-4.26-11.43-8.82-22.68-13.61-33.8-2.39-5.56-4.84-11.1-7.35-16.61l-3.82-8.27-1.96-4.14-2.06-4.25c-5.4-11.14-18.79-15.81-29.92-10.44-11.13,5.37-15.78,18.75-10.38,29.89,.34,.71,.72,1.39,1.12,2.04l.13,.21Z"/><g><path class="x" d="M426.05,732.79c7.22-14.49,21.64-24.02,37.8-24.88,22.58-1.2,52.39-.56,59.3,10.28,10.43,16.36-84.95,89.76-102.31,102.92-1.96,1.48-4.41,2.1-6.83,1.72-4.51-.71-12.15-2.98-20.22-10.07-3.08-2.71-4.01-7.16-2.17-10.83l34.43-69.13Z"/><path class="ab" d="M407.1,799.86c36.48-50.23,87.95-74.26,116.2-84.27-9.1-2.91-19.18-5.2-28.2-6.89-15.9-2.99-32.16,2.86-42.6,15.22l-49.83,59c-2.67,3.16-2.79,7.71-.41,11.09,1.58,2.25,3.21,4.18,4.83,5.85Z"/></g><g><path class="u" d="M373.22,828.66s-8.5,15.59-17.66,26.56c-9.17,10.97-14.21,17.74-12.45,24.9,1.76,7.16,13.73,5.25,22.89-4.48,9.16-9.72,22.2-19.84,23-31.27,.8-11.43-15.77-15.72-15.77-15.72Z"/><path class="ae" d="M416.57,830.51c3.86-6.53,3.41-14.78-1.19-20.8-1.92-2.51-4.31-5-7.13-6.75-8.12-5.02-15.04-3.77-28.08,4.17-13.04,7.94-21.8,3.19-32.02,9.53-10.22,6.34-3.19,15.14,11.58,14.38,14.77-.75,22.26,2.05,10.7,22.03-11.56,19.98-31.26,17.13-36.57,29.24-5.31,12.12,21.91,10.29,44.42-9.38,16.39-14.32,31.23-30.47,38.29-42.43Z"/></g><path class="y" d="M461.02,607.64c-4.13,13.63-26.71,16.16-56.18,9.47-29.47-6.69-52.23-18.6-50.54-33.69,1.75-15.68,30.85-25.25,60.32-18.56,29.47,6.69,50.98,27.68,46.41,42.78Z"/><path class="ae" d="M183.25,617.32l-2.19,3.52-2.23,3.66-4.42,7.41c-2.92,4.97-5.8,9.97-8.62,15-5.64,10.06-11.07,20.22-16.16,30.46-5.09,10.24-9.86,20.58-13.96,30.92-2.03,5.17-3.9,10.34-5.46,15.43-1.57,5.08-2.78,10.12-3.4,14.65l-.07,.53c-1.11,8.16-8.63,13.89-16.79,12.79-7.59-1.02-13.06-7.65-12.89-15.12,.18-7.25,1.14-13.85,2.36-20.23,1.24-6.37,2.76-12.51,4.42-18.55,3.36-12.05,7.32-23.67,11.58-35.11,4.26-11.43,8.82-22.68,13.61-33.8,2.39-5.56,4.84-11.1,7.35-16.61l3.82-8.27,1.96-4.14,2.06-4.25c5.4-11.14,18.79-15.81,29.92-10.44,11.13,5.37,15.78,18.75,10.38,29.89-.34,.71-.72,1.39-1.12,2.04l-.13,.21Z"/><g><path class="s" d="M177.93,734.22c-7.2-14.49-21.62-24.04-37.78-24.92-22.58-1.22-52.38-.61-59.31,10.23-10.45,16.35,84.87,89.84,102.22,103.01,1.95,1.48,4.4,2.11,6.83,1.73,4.51-.71,12.16-2.97,20.23-10.06,3.09-2.71,4.01-7.15,2.18-10.83l-34.37-69.16Z"/><path class="ab" d="M196.81,801.3c-36.44-50.26-87.88-74.34-116.12-84.38,9.1-2.91,19.19-5.18,28.2-6.87,15.9-2.98,32.15,2.89,42.58,15.26l49.77,59.05c2.66,3.16,2.78,7.72,.4,11.09-1.58,2.25-3.21,4.18-4.84,5.84Z"/></g><g><path class="u" d="M228.4,830.14s8.48,15.6,17.64,26.57c9.16,10.97,14.19,17.75,12.43,24.91-1.76,7.16-13.74,5.23-22.89-4.5-9.15-9.73-22.18-19.86-22.97-31.29-.79-11.43,15.79-15.7,15.79-15.7Z"/><path class="ae" d="M185.05,831.94c-3.85-6.53-3.4-14.78,1.21-20.8,1.92-2.51,4.31-5,7.14-6.74,8.13-5.01,15.05-3.75,28.08,4.19,13.03,7.95,21.8,3.21,32.01,9.56,10.21,6.35,3.18,15.14-11.59,14.37-14.77-.76-22.26,2.03-10.72,22.02,11.55,19.99,31.24,17.16,36.54,29.28,5.3,12.12-21.92,10.27-44.42-9.42-16.37-14.34-31.2-30.5-38.25-42.46Z"/></g><path class="t" d="M129.02,603.91c4.13,13.63,26.71,16.16,56.18,9.47,29.47-6.69,52.23-18.6,50.54-33.69-1.75-15.68-30.85-25.25-60.32-18.56-29.47,6.69-50.98,27.68-46.41,42.78Z"/><path class="ae" d="M266.74,856.48c-1.36,11.47-2.62,23.18-3.82,34.79-1.19,11.63-2.33,23.28-3.36,34.91-2.05,23.26-3.82,46.56-4.61,69.58v.13c-.29,8.24-7.2,14.7-15.44,14.41-7.69-.26-13.82-6.37-14.38-13.86-1.71-24.04-2.41-47.81-2.83-71.58-.2-11.88-.3-23.75-.34-35.62-.03-11.89,0-23.68,.14-35.7,.15-12.38,10.3-22.29,22.68-22.14,12.38,.15,22.29,10.3,22.14,22.68,0,.79-.06,1.57-.15,2.33v.07Z"/><path class="ae" d="M356.76,849.95c.5,.95,.82,1.62,1.21,2.4l1.08,2.22,2.07,4.38c1.36,2.91,2.66,5.8,3.94,8.7,1.27,2.9,2.54,5.79,3.75,8.7,1.23,2.9,2.44,5.8,3.61,8.72,4.71,11.64,9.11,23.35,13.2,35.15,4.04,11.82,7.93,23.65,11.38,35.62,1.81,5.95,3.4,11.98,5.06,17.97,1.63,6,3.08,12.05,4.63,18.06,2.05,7.98-2.76,16.12-10.74,18.17-7.46,1.92-15.05-2.16-17.69-9.21l-.18-.5c-2.07-5.6-4.04-11.23-6.19-16.8-2.18-5.56-4.26-11.14-6.58-16.63-4.45-11.05-9.31-21.93-14.27-32.72-5.01-10.77-10.3-21.39-15.82-31.83-1.37-2.62-2.77-5.21-4.19-7.78-1.4-2.59-2.85-5.13-4.29-7.68-1.45-2.54-2.91-5.07-4.39-7.54l-2.22-3.67-1.11-1.78c-.35-.55-.76-1.21-1.02-1.58-7.08-10.17-4.58-24.16,5.59-31.25,10.17-7.08,24.16-4.58,31.25,5.59,.51,.73,.97,1.49,1.38,2.25l.54,1.03Z"/><path class="ae" d="M241.94,772.11h91.72v25.95c0,12.27-9.96,22.23-22.23,22.23h-47.25c-12.27,0-22.23-9.96-22.23-22.23v-25.95h0Z"/><g><path class="w" d="M296.03,899.27h0c-42.81,3.41-80.28-28.52-83.69-71.33l-.65-8.19c-.49-6.18,4.12-11.59,10.3-12.08l63.69-5.08,68.96-5.5c6.18-.49,11.59,4.12,12.08,10.3l.65,8.19c3.41,42.81-28.52,80.28-71.33,83.69Z"/><g class="af"><path class="aa" d="M267.52,898.04c-.96,0-1.78-.74-1.86-1.72l-2.93-36.72c-1.32-16.51,11.04-31.01,27.55-32.33,8-.63,15.77,1.88,21.87,7.08,6.11,5.2,9.82,12.47,10.46,20.47l2.93,36.72c.08,1.03-.68,1.93-1.71,2.01-1.03,.08-1.93-.69-2.01-1.71l-2.93-36.72c-.56-7-3.81-13.37-9.16-17.93-5.35-4.56-12.15-6.77-19.15-6.2-14.46,1.15-25.29,13.85-24.13,28.31l2.93,36.72c.08,1.03-.68,1.93-1.71,2.01-.05,0-.1,0-.15,0Z"/></g><path class="ab" d="M366.71,807.38c-.49-6.18-5.9-10.79-12.08-10.3l-.8,.06c-12.84,128.29-108.06,88.5-108.64,88.25,14.3,10.05,32.05,15.36,50.84,13.86,42.81-3.41,74.74-40.88,71.33-83.69l-.65-8.19Z"/><path class="ae" d="M365.32,806.22l-152.47,12.16c-3.43,.27-6.43-2.29-6.71-5.71h0c-.27-3.43,2.29-6.43,5.71-6.71l152.47-12.16c3.43-.27,6.43,2.29,6.71,5.71h0c.27,3.43-2.29,6.43-5.71,6.71Z"/></g><g><path class="v" d="M397.69,964.33h0c20.19,17.35,50.64,69.1,65.06,132.95,1.54,6.8-2.93,12.75-9.88,13.18l-57.11,3.46c-6.96,.42-13.71-4.86-14.94-11.67-7.82-43.15-20.87-80.93-17.37-107.34,2.28-17.19,16.11-29.47,34.24-30.57Z"/><path class="ab" d="M397.69,964.33c-11.75,.71-21.68,6.15-27.84,14.55,4.9,9.62,16.61,25.47,41.95,30.01,8.31,1.49,12.16-2.24,13.18-8.9-9.62-16.36-19.26-28.76-27.29-35.66Z"/><ellipse class="o" cx="402.68" cy="982.58" rx="13.39" ry="27.93" transform="translate(-331.81 215.67) rotate(-21.48)"/><path class="ab" d="M375.31,973.04h0c-6.37,5.4-10.67,12.96-11.85,21.87-3.5,26.41,9.55,64.19,17.37,107.34,1.23,6.82,7.98,12.09,14.94,11.67l18.71-1.13c-26.46-47.23-39.17-139.74-39.17-139.74Z"/></g><g><path class="ac" d="M228.73,960.96h0c-16.49,18.77-25.01,72.97-26.43,138.41-.15,6.97,5.47,12.72,12.44,12.72h57.21c6.97,0,12.59-5.75,12.44-12.72-.95-44.11-6.83-83.11-15.61-109.6-5.71-17.24-21.88-28.81-40.04-28.81Z"/><path class="ab" d="M254.38,969.66c-7.2-5.5-16.15-8.7-25.66-8.7-1.6,1.82-3.1,4.07-4.55,6.54l-3.33,38.3s25.92,8.72,33.54-36.15Z"/><ellipse class="o" cx="227.47" cy="979.72" rx="27.42" ry="13.82" transform="translate(-774.09 1071.74) rotate(-82.18)"/><path class="ab" d="M254.95,970.1c1.43,28.5,4.25,96.06,1.63,141.99h15.36c6.97,0,12.59-5.75,12.44-12.72-.95-44.11-6.83-83.11-15.61-109.6-2.64-7.97-7.54-14.71-13.82-19.68Z"/></g><g><path class="ad" d="M183.82,1158h99.69c5.7,0,10.15-4.97,9.52-10.63-2.61-23.57-13.02-38.26-13.02-38.26,0,0-17.33,2.76-26.73,.19-15.66-4.27-24.8-14.26-39.77-9.93-9.64,2.79-32.07,19.04-39.02,46.89-1.49,5.97,3.17,11.74,9.33,11.74Z"/><path class="ab" d="M248.18,1158h35.33c5.7,0,10.15-4.97,9.52-10.63-2.61-23.57-13.02-38.26-13.02-38.26,0,0-17.33,2.76-26.73,.19-15.66-4.27-24.8-14.26-39.77-9.93-3.61,1.05-9.03,3.99-14.75,8.72,29.78-8.61,46.52-1.58,55.63,20.06,12.52,29.75-6.21,29.84-6.21,29.84Z"/><ellipse class="ae" cx="280.18" cy="1125.23" rx="12.54" ry="19.54" transform="translate(-244.47 91.12) rotate(-12.92)"/></g><g><path class="p" d="M494.37,1158h-99.69c-5.7,0-11-4.97-11.35-10.63-1.45-23.57,6.44-38.26,6.44-38.26,0,0,17.81,2.76,26.77,.19,14.93-4.27,22.34-14.26,38.06-9.93,10.12,2.79,38.26,15.13,47.09,46.89,1.74,6.24-1.15,11.74-7.31,11.74Z"/><path class="ab" d="M415.88,1141.93c-9.84-16.07,15.23-38.84,15.23-38.84h0c-4.35,2.17-8.92,4.6-14.57,6.22-8.96,2.57-26.77-.19-26.77-.19,0,0-7.89,14.69-6.44,38.26,.35,5.66,5.66,10.63,11.35,10.63h57.83s-26.79,0-36.63-16.07Z"/><ellipse class="ae" cx="392.38" cy="1125.23" rx="12.71" ry="19.28" transform="translate(-78.65 30.59) rotate(-4.06)"/></g><g><path class="r" d="M394.94,677.69c-3.97,56.26-53.96,115.21-110.22,111.24-56.26-3.97-97.48-69.35-93.51-125.61,3.97-56.26,52.79-98.65,109.05-94.68,56.26,3.97,98.65,52.79,94.68,109.05Z"/><path class="ab" d="M286.85,758.75c-53.75-3.79-94.3-55.87-94.82-102.85-.35,2.45-.65,4.92-.83,7.42-3.97,56.26,37.25,121.64,93.51,125.61,56.26,3.97,106.25-54.98,110.22-111.24,.18-2.51,.23-4.99,.23-7.46-7.11,46.44-54.56,92.31-108.31,88.52Z"/><g class="af"><path class="aa" d="M340.95,771.44s-.09,0-.13,0c-1.03-.07-1.8-.96-1.73-1.99l12.61-178.71c.07-1.03,.97-1.79,1.99-1.73,1.03,.07,1.8,.96,1.73,1.99l-12.61,178.71c-.07,.98-.89,1.73-1.86,1.73Z"/></g><path class="ae" d="M298.04,601.43h0c-17.02-1.2-29.84-15.97-28.64-32.99l1.72-24.36,61.63,4.35-1.72,24.36c-1.2,17.02-15.97,29.84-32.99,28.64Z"/><path class="ab" d="M261.97,573.24c-.06,.51-.15,1-.18,1.51-1.47,20.91,14.28,39.05,35.18,40.52,20.91,1.47,39.05-14.28,40.52-35.18,.04-.51,.01-1.01,.03-1.52-11.36-5.49-23.91-8.99-37.26-9.93-13.35-.94-26.27,.76-38.29,4.6Z"/><g><ellipse class="ag" cx="349.44" cy="649.15" rx="18.17" ry="12.24" transform="translate(-322.69 952.05) rotate(-85.97)"/><path class="aa" d="M348.74,669.16c-.24,0-.47,0-.71-.02-3.9-.28-7.36-2.71-9.75-6.85-2.25-3.9-3.29-8.92-2.92-14.13,.78-11.02,7.74-19.54,15.48-18.99,3.9,.28,7.36,2.71,9.75,6.85,2.25,3.9,3.29,8.92,2.92,14.13-.75,10.68-7.31,19.02-14.78,19.02Zm1.4-36.29c-5.44,0-10.45,6.97-11.05,15.55-.32,4.47,.55,8.74,2.43,12.01,1.75,3.03,4.15,4.8,6.78,4.99,5.62,.4,10.88-6.72,11.5-15.53,.32-4.47-.55-8.74-2.43-12.01-1.75-3.03-4.15-4.8-6.78-4.99-.15-.01-.3-.02-.45-.02Z"/></g></g><g><ellipse class="ae" cx="548.72" cy="348.78" rx="136.43" ry="65.44" transform="translate(86.58 806.13) rotate(-77.14)"/><path class="ag" d="M559.18,467.21c3.69-3.29,7.33-7.05,10.88-11.27l43.53-197.61c-1.47-5.19-3.23-9.99-5.22-14.39l-49.19,223.27Z"/><ellipse class="ae" cx="66.53" cy="314.95" rx="66.12" ry="136.47" transform="translate(-19.08 4.64) rotate(-3.5)"/><path class="ag" d="M16.89,214.92l10.55,202.14c2.83,4.75,5.83,9.06,8.97,12.92l-11.92-228.37c-2.72,4-5.27,8.44-7.6,13.31Z"/><path class="a`" d="M587.14,231.62C595.34,114.63,481.22,11.31,332.24,.86S55.82,76.78,47.61,193.77c-.23,3.25-.33,6.49-.37,9.72h-.2l.23,4.14c.06,4.85,.33,9.67,.8,14.45l6.24,112.26,5.57,99.73c1.8,32.19,18.18,61.93,44.65,81.08,46.67,33.76,112.75,57.26,187.23,62.48,71.04,4.98,136.86-7.56,186.99-32.09,29.68-14.52,50.84-41.69,57.74-73.54l45.03-207.59c2.04-7.48,3.58-15.13,4.59-22.92l.04-.2h-.02c.41-3.2,.76-6.42,.99-9.67Z"/><g class="af"><path class="aa" d="M328.79,125.44c-1.75,0-3.51-.06-5.28-.19-40.37-2.83-70.95-37.38-68.17-77.01l3.16-44.97c.07-1.03,.95-1.8,1.99-1.73,1.03,.07,1.8,.96,1.73,1.99l-3.16,44.97c-2.64,37.58,26.39,70.34,64.72,73.03,1.68,.12,3.36,.18,5.02,.18,36.17,0,66.74-27.52,69.26-63.46l3.15-44.97c.07-1.03,.95-1.8,1.99-1.73,1.03,.07,1.8,.96,1.73,1.99l-3.15,44.97c-2.66,37.89-34.87,66.92-72.98,66.93Z"/></g><g class="af"><path class="aa" d="M464.5,553.88c-.09,0-.18,0-.27-.02-1.02-.15-1.73-1.09-1.58-2.11,14-96.65,47.79-325.83,59.31-366.49,12.8-45.18,39.87-54.92,41.02-55.32,.98-.33,2.04,.19,2.37,1.16,.33,.97-.19,2.03-1.16,2.37-.43,.15-26.46,9.78-38.64,52.81-11.46,40.44-45.22,269.43-59.21,366.01-.13,.93-.93,1.6-1.84,1.6Z"/></g><g class="af"><path class="aa" d="M120.68,527.79c-1.03,0-1.86-.83-1.87-1.86-.37-97.06-1.85-327.27-7.52-368.71-6.1-44.6-28.08-55.94-28.3-56.05-.92-.46-1.3-1.57-.85-2.5,.46-.92,1.58-1.3,2.5-.85,.98,.48,23.98,12.35,30.35,58.89,5.7,41.67,7.18,272.08,7.55,369.21,0,1.03-.83,1.87-1.86,1.87h0Z"/></g><g><path class="ae" d="M170.11,251.09c-43.9-3.08-80.59,32.99-78.25,76.94h0l5.44,101.62c1.16,21.72,12.04,41.74,29.57,54.63,43.05,31.65,102.53,51.59,167.51,56.15,61.92,4.34,121.5-5.99,167.78-29.11,19.54-9.76,33.4-27.79,38.04-49.46l21.92-102.36c9.32-43.55-22.05-85.26-66.48-88.38l-285.53-20.03Z"/><path class="aa" d="M321.92,545.13c-9.2,0-18.47-.32-27.8-.98-65.67-4.61-125.86-24.8-169.46-56.86-18.53-13.62-29.86-34.56-31.08-57.44l-5.44-101.62c-1.17-22.02,7.17-43.51,22.89-58.96,15.72-15.46,37.35-23.43,59.34-21.89l285.53,20.03c22.25,1.56,42.71,12.68,56.11,30.51,13.41,17.83,18.42,40.56,13.75,62.37l-21.92,102.36c-4.87,22.78-19.46,41.74-40.02,52.01-39.87,19.92-89.46,30.47-141.9,30.47ZM164.99,254.64c-18.16,0-35.69,7.12-48.73,19.94-14.2,13.96-21.73,33.37-20.67,53.25l5.44,101.62c1.1,20.64,11.33,39.53,28.05,51.83,42.48,31.24,101.28,50.92,165.56,55.43,61.26,4.3,120.17-5.9,165.85-28.72,18.52-9.25,31.66-26.35,36.06-46.9l21.92-102.36c4.22-19.7-.31-40.23-12.42-56.33-12.11-16.1-30.58-26.14-50.67-27.55l-285.53-20.03c-1.62-.11-3.25-.17-4.86-.17Z"/></g><path class="ab" d="M578.36,164.73c4.76,48.35-37.96,187.86-49.64,256.23-12.74,74.56-43.83,150.97-235.61,137.52-191.74-13.45-229.52-102.06-229.53-102.09,6.45,23.34,20.75,44.15,40.96,58.77,46.67,33.76,112.75,57.26,187.23,62.48,71.04,4.98,136.86-7.56,186.99-32.09,29.68-14.52,50.84-41.69,57.74-73.54l45.03-207.59c2.04-7.48,3.58-15.13,4.59-22.92l.04-.2h-.02c.41-3.2,.76-6.42,.99-9.67,1.62-23.03-1.57-45.52-8.77-66.89Z"/><path class="ag" d="M235.7,369.03c-.89,12.71-24.94,16.61-43.2,15.33-18.26-1.28-38.45,.08-37.56-12.63,.89-12.71,20.92-10.11,39.17-8.83s42.48-6.57,41.59,6.14Z"/><path class="ag" d="M278.47,461.04c-8.95-.63-15.32-5.72-12.84-10.36,3.96-7.42,13.33-16.28,35.44-14.17,22.15,2.11,29.43,11.73,31.68,19.19,1.46,4.83-5.53,8.76-14.24,8.15-11.76-.83-28.1-1.97-40.05-2.81Z"/></g></g><path class="ag" d="M388.02,372c-.89,12.71,20.85,19.82,37.93,21.02,17.08,1.2,35.59,5.27,36.48-7.44,.89-12.71-18-12.84-35.08-14.04s-38.44-12.25-39.33,.46Z"/></g></g></g></svg>