<?xml version="1.0" encoding="UTF-8"?><svg xmlns="http://www.w3.org/2000/svg" xmlns:xlink="http://www.w3.org/1999/xlink" viewBox="0 0 655.8 1161.43"><defs><style>.o{fill:#fff;}.p{fill:url(#l);}.q{isolation:isolate;}.r{fill:url(#m);}.s{fill:url(#f);}.t{fill:url(#g);}.u{fill:url(#i);}.v{fill:url(#h);}.w{fill:url(#d);}.x{fill:url(#e);}.y{fill:url(#n);}.a`,.aa{fill:#9bd1ca;}.ab{fill:url(#j);}.ac{fill:url(#k);}.ad{fill:#231f20;}.ae{opacity:.8;}.ae,.aa{mix-blend-mode:darken;}.af{fill:#00ffdc;}</style><radialGradient id="d" cx="616.4" cy="267.53" fx="616.4" fy="267.53" r="46.67" gradientTransform="translate(-342.57 225.78) scale(1.31)" gradientUnits="userSpaceOnUse"><stop offset=".15" stop-color="#fff"/><stop offset=".44" stop-color="#fcfdfd"/><stop offset=".6" stop-color="#f4f9f8"/><stop offset=".72" stop-color="#e6f2f0"/><stop offset=".83" stop-color="#d3e7e4"/><stop offset=".93" stop-color="#badad6"/><stop offset="1" stop-color="#a4cfc9"/></radialGradient><radialGradient id="e" cx="1446.61" cy="236.97" fx="1446.61" fy="236.97" r="46.67" gradientTransform="translate(2089.8 113.33) rotate(175.24) scale(1.31 -1.31)" xlink:href="#d"/><radialGradient id="f" cx="453.35" cy="173.83" fx="453.35" fy="173.83" r="66.78" gradientTransform="translate(-505.36 430.14) scale(1.49)" xlink:href="#d"/><radialGradient id="g" cx="570.43" cy="245.9" fx="570.43" fy="245.9" r="66.29" gradientTransform="translate(-505.36 430.14) scale(1.49)" xlink:href="#d"/><radialGradient id="h" cx="667.85" cy="406.05" fx="667.85" fy="406.05" r="65.97" gradientTransform="translate(-505.36 430.14) scale(1.49)" xlink:href="#d"/><radialGradient id="i" cx="519.16" cy="412.16" fx="519.16" fy="412.16" r="57.41" gradientTransform="translate(-505.36 430.14) scale(1.49)" xlink:href="#d"/><radialGradient id="j" cx="1963.1" cy="-260.45" fx="1963.1" fy="-260.45" r="67.98" gradientTransform="translate(-1194.29 -1608.8) rotate(61.77) scale(1.49)" xlink:href="#d"/><radialGradient id="k" cx="514.14" cy="476.54" fx="514.14" fy="476.54" r="43.89" gradientTransform="translate(-505.36 430.14) scale(1.49)" xlink:href="#d"/><radialGradient id="l" cx="421.94" cy="480.34" fx="421.94" fy="480.34" r="42.73" gradientTransform="translate(-255.72 430.14) scale(1.49) skewX(9.77)" xlink:href="#d"/><radialGradient id="m" cx="555.22" cy="144.81" fx="555.22" fy="144.81" r="100.2" gradientTransform="translate(-505.36 430.14) scale(1.49)" xlink:href="#d"/><radialGradient id="n" cx="574.23" cy="-100.14" fx="574.23" fy="-100.14" r="252.33" gradientTransform="translate(-505.36 398.56) scale(1.49 1.46)" xlink:href="#d"/></defs><g class="q"><g id="a"/><g id="b"><g id="c"><g><path class="ad" d="M320.21,868.46c-.77,5.28-1.52,10.8-2.24,16.22l-2.09,16.36c-1.34,10.92-2.59,21.85-3.75,32.78-1.13,10.93-2.15,21.85-3.02,32.76-.83,10.9-1.52,21.79-1.93,32.6v.13c-.32,8.24-7.25,14.67-15.5,14.36-7.68-.29-13.78-6.33-14.33-13.82-.85-11.38-1.4-22.71-1.8-34.01-.36-11.29-.57-22.55-.67-33.81-.08-11.25-.06-22.49,.06-33.73l.26-16.86c.11-5.65,.24-11.2,.43-16.98,.4-12.37,10.76-22.07,23.13-21.67,12.37,.4,22.07,10.76,21.67,23.13-.03,.84-.1,1.67-.22,2.48v.03Z"/><path class="ad" d="M413.39,857.62c3.1,11.57,6.05,22.96,9,34.44l8.72,34.38c5.74,22.93,11.35,45.88,16.85,68.85,1.92,8.02-3.03,16.09-11.05,18.01-7.48,1.79-15-2.39-17.54-9.47l-.03-.08c-7.85-22.17-15.82-44.29-23.89-66.36l-12.21-33.05c-4.1-10.98-8.25-22.03-12.4-32.85l-.02-.04c-4.44-11.55,1.32-24.52,12.88-28.96,11.55-4.44,24.52,1.32,28.96,12.88,.28,.74,.53,1.5,.73,2.25Z"/><path class="ad" d="M268.77,623.74c-1.12,3.19-2.2,6.13-3.31,9.17l-3.35,9c-2.26,5.99-4.56,11.95-6.9,17.9-4.7,11.9-9.56,23.74-14.7,35.53-2.57,5.89-5.21,11.77-7.95,17.64-2.74,5.86-5.56,11.71-8.57,17.54-3,5.83-6.13,11.64-9.56,17.44-3.47,5.81-7.16,11.59-11.81,17.46-5.12,6.46-14.51,7.55-20.97,2.43-6.04-4.79-7.38-13.31-3.35-19.68l.29-.45c2.75-4.3,5.4-9.41,7.86-14.67,2.46-5.3,4.77-10.83,6.98-16.43,2.22-5.6,4.31-11.32,6.34-17.09,2.03-5.76,3.98-11.58,5.87-17.44,3.79-11.71,7.33-23.56,10.72-35.46,1.69-5.95,3.33-11.92,4.93-17.89l2.36-8.96c.77-2.96,1.55-6.02,2.24-8.85,2.93-12.02,15.05-19.4,27.07-16.47,12.02,2.93,19.4,15.05,16.47,27.07-.18,.72-.38,1.42-.62,2.1l-.03,.09Z"/><path class="ad" d="M515.01,732.51l-88.8-101.19-.28-.32c-8.17-9.31-7.24-23.48,2.06-31.64s23.48-7.24,31.64,2.06c.55,.62,1.06,1.29,1.53,1.95l77.43,110.88c4.72,6.76,3.07,16.07-3.69,20.8-6.29,4.39-14.77,3.27-19.73-2.34l-.17-.19Z"/><path class="w" d="M497.94,643.28c-8.77,11.22-30.75,5.42-55.81-11.46-25.07-16.88-41.98-36.21-34.96-49.67,7.3-13.99,37.89-12.4,62.96,4.48,25.07,16.88,37.54,44.23,27.82,56.66Z"/><path class="x" d="M198.96,649.56c9.68,10.45,31.09,2.85,54.67-16.06,23.58-18.9,38.83-39.57,30.72-52.4-8.43-13.34-38.79-9.21-62.37,9.69-23.58,18.9-33.74,47.19-23.02,58.77Z"/><path class="ad" d="M301.65,775.53h91.72v25.95c0,12.27-9.96,22.23-22.23,22.23h-47.25c-12.27,0-22.23-9.96-22.23-22.23v-25.95h0Z"/><g><path class="s" d="M107.15,659.29c3.05-2.15,7.1-2.19,10.38-.41,10.09,5.5,33.74,18.47,56.21,31.3,11.18,6.38,19.03,17.25,21.71,29.84,5.35,25.11,11.23,65.45-4.86,70.27-20.82,6.25-84.64-78.23-99.18-97.94-2.04-2.76-2.51-6.31-1.34-9.54,2.27-6.28,7.26-16.59,17.08-23.52Z"/><path class="aa" d="M200.82,756.53c-35.29-.09-89.43-50.28-106.38-83.05-2.06,3.52-3.48,6.87-4.42,9.48-1.14,3.18-.61,6.68,1.39,9.4,14.56,19.72,78.36,104.19,99.18,97.94,9.22-2.77,11.21-17.22,10.23-33.77Z"/></g><g><path class="t" d="M347.51,902.3h0c-42.94,0-77.76-34.81-77.76-77.76v-8.22c0-6.2,5.03-11.22,11.22-11.22h133.07c6.2,0,11.22,5.03,11.22,11.22v8.22c0,42.94-34.81,77.76-77.76,77.76Z"/><g class="ae"><path class="a`" d="M375.68,898.82c-1.03,0-1.86-.83-1.86-1.87v-36.83c0-14.5-11.8-26.31-26.31-26.31s-26.31,11.8-26.31,26.31v36.83c0,1.03-.84,1.87-1.86,1.87s-1.86-.83-1.86-1.87v-36.83c0-16.56,13.47-30.04,30.04-30.04s30.04,13.47,30.04,30.04v36.83c0,1.03-.84,1.87-1.86,1.87Z"/></g><path class="aa" d="M425.26,816.32c0-6.2-5.03-11.22-11.22-11.22h-.8c-23,126.87-114.76,79.62-115.31,79.34,13.46,11.15,30.73,17.86,49.57,17.86,42.94,0,77.76-34.81,77.76-77.76v-8.22Z"/><path class="ad" d="M423.97,815.06h-152.96c-3.44,0-6.23-2.79-6.23-6.23h0c0-3.44,2.79-6.23,6.23-6.23h152.96c3.44,0,6.23,2.79,6.23,6.23h0c0,3.44-2.79,6.23-6.23,6.23Z"/></g><g><path class="v" d="M443.27,966.32h0c19.11,18.53,46.37,72.03,56.91,136.64,1.12,6.88-3.69,12.55-10.66,12.55h-57.21c-6.97,0-13.39-5.68-14.21-12.55-5.19-43.54-15.94-82.04-10.85-108.19,3.31-17.02,17.87-28.44,36.03-28.44Z"/><path class="aa" d="M443.27,966.32c-11.78,0-22.01,4.82-28.67,12.84,4.31,9.9,15.04,26.43,40.06,32.49,8.2,1.99,12.27-1.51,13.69-8.09-8.61-16.92-17.49-29.87-25.08-37.24Z"/><path class="o" d="M433.72,986.69c4.15,14.81,13.53,25.99,20.94,24.96s10.06-13.86,5.91-28.67-13.53-25.99-20.94-24.96c-7.41,1.02-10.06,13.86-5.91,28.67Z"/><path class="aa" d="M420.4,973.66h0c-6.69,5-11.44,12.29-13.15,21.11-5.09,26.15,5.66,64.65,10.85,108.19,.82,6.88,7.24,12.55,14.21,12.55h18.75c-23.56-48.74-30.65-141.86-30.65-141.86Z"/></g><g><path class="u" d="M278.47,964.39h0c-16.49,18.77-25.01,72.97-26.43,138.41-.15,6.97,5.47,12.72,12.44,12.72h57.21c6.97,0,12.59-5.75,12.44-12.72-.95-44.11-6.83-83.11-15.61-109.6-5.71-17.24-21.88-28.81-40.04-28.81Z"/><path class="aa" d="M304.12,973.08c-7.2-5.5-16.15-8.7-25.66-8.7-1.6,1.82-3.1,4.07-4.55,6.54l-3.33,38.3s25.92,8.72,33.54-36.15Z"/><ellipse class="o" cx="277.21" cy="983.14" rx="27.42" ry="13.82" transform="translate(-734.51 1123.98) rotate(-82.18)"/><path class="aa" d="M304.69,973.52c1.43,28.5,4.25,96.06,1.63,141.99h15.36c6.97,0,12.59-5.75,12.44-12.72-.95-44.11-6.83-83.11-15.61-109.6-2.64-7.97-7.54-14.71-13.82-19.68Z"/></g><path class="ad" d="M425.6,785.5c-11.59,2.45-19.15,17.97-21.27,29.3-1.05,5.6-6.8,19.94-9.36,23.14-3.16,3.96,4.25,10.98,12.48,3.42,8.23-7.55,4.36-15.66,11.27-14.35,4.48,.85,3.2,9.91,2.76,12.89-1.08,7.44-3.23,14.24-6.25,20.91-1.47,3.25-8.04,20.66-.4,21.22,2.23,.16,4.56-3.45,5.7-4.89,5.18-6.54,6.45-12.21,12.07-18.37,10.83-11.87,14.27-30.44,13.73-45.59-.21-5.78-.62-11.65-1.88-17.3-.54-2.41-3.92-8.24-6.76-9.15-3.65-1.18-9.31-1.82-12.08-1.23Z"/><g><path class="ab" d="M478.72,721.75c10.62-12.22,26.97-17.83,42.83-14.61,22.16,4.5,50.85,12.59,54.83,24.82,6,18.45-104.74,65.6-124.84,73.98-2.27,.94-4.79,.93-7.04-.05-4.19-1.82-11.02-5.93-17.05-14.82-2.31-3.4-2.08-7.93,.61-11.03l50.66-58.29Z"/><path class="aa" d="M432.24,797.04c37.19-49.71,88.99-73,117.39-82.61-9.06-3.04-19.11-5.47-28.1-7.29-15.86-3.22-32.2,2.4-42.81,14.62l-50.66,58.29c-2.71,3.12-2.9,7.67-.57,11.09,1.55,2.27,3.15,4.23,4.75,5.92Z"/></g><g><path class="ac" d="M233.56,1161.43h99.69c5.7,0,10.15-4.97,9.52-10.63-2.61-23.57-13.02-38.26-13.02-38.26,0,0-17.33,2.76-26.73,.19-15.66-4.27-24.8-14.26-39.77-9.93-9.64,2.79-32.07,19.04-39.02,46.89-1.49,5.97,3.17,11.74,9.33,11.74Z"/><path class="aa" d="M297.92,1161.42h35.33c5.7,0,10.15-4.97,9.52-10.63-2.61-23.57-13.02-38.26-13.02-38.26,0,0-17.33,2.76-26.73,.19-15.66-4.27-24.8-14.26-39.77-9.93-3.61,1.05-9.03,3.99-14.75,8.72,29.78-8.61,46.52-1.58,55.63,20.06,12.52,29.75-6.21,29.84-6.21,29.84Z"/><ellipse class="ad" cx="329.92" cy="1128.65" rx="12.54" ry="19.54" transform="translate(-243.97 102.32) rotate(-12.92)"/></g><g><path class="p" d="M531.61,1161.43h-99.69c-5.7,0-11-4.97-11.35-10.63-1.45-23.57,6.44-38.26,6.44-38.26,0,0,17.81,2.76,26.77,.19,14.93-4.27,22.34-14.26,38.06-9.93,10.12,2.79,38.26,15.13,47.09,46.89,1.74,6.24-1.15,11.74-7.31,11.74Z"/><path class="aa" d="M453.12,1145.35c-9.84-16.07,15.23-38.84,15.23-38.84h0c-4.35,2.17-8.92,4.6-14.57,6.22-8.96,2.57-26.77-.19-26.77-.19,0,0-7.89,14.69-6.44,38.26,.35,5.66,5.66,10.63,11.35,10.63h57.83s-26.79,0-36.63-16.07Z"/><ellipse class="ad" cx="429.62" cy="1128.65" rx="12.71" ry="19.28" transform="translate(-78.8 33.23) rotate(-4.06)"/></g><path class="ad" d="M105.39,645.34c-3.85-10.69-12.05-18.6-18.04-29.18-2.09-3.69-4.18-7.41-5.7-11.38-1.86-4.84-3.62-9.97-9.97-7.14-11.33,5.06-2.54,17.96-2.46,26.19,.01,1.35-.2,2.76-.97,3.87-.96,1.39-2.67,2.13-4.35,2.28-5.99,.52-16.51-1.37-22.41-1.94-7.1-.69-14.2-1.38-21.3-2.06-4.21-.41-8.56-.8-12.57,.53C3.6,627.84,0,631.39,0,635.61c0,4.55,3.89,8.04,7.53,10.76,9.24,6.9,19.65,11.41,29.41,17.31,13.54,8.18,29.34,21.34,45.68,22.16,16.57,.83,25.58-14.8,24.89-29.81-.18-3.92-.95-7.43-2.12-10.69Z"/><g><path class="r" d="M449.62,677.57c0,56.4-45.72,118.72-102.12,118.72s-102.12-62.32-102.12-118.72,45.72-102.12,102.12-102.12,102.12,45.72,102.12,102.12Z"/><path class="aa" d="M347.51,766.03c-53.89,0-97.99-49.1-101.82-95.92-.18,2.47-.3,4.95-.3,7.46,0,56.4,45.72,118.72,102.12,118.72s102.12-62.32,102.12-118.72c0-2.51-.12-4.99-.3-7.46-3.83,46.83-47.93,95.92-101.82,95.92Z"/><g class="ae"><path class="a`" d="M402.23,774.89c-1.03,0-1.86-.83-1.86-1.87v-179.16c0-1.03,.84-1.87,1.86-1.87s1.86,.84,1.86,1.87v179.16c0,1.03-.84,1.87-1.86,1.87Z"/></g><path class="ad" d="M347.59,608.32h0c-17.06,0-30.89-13.83-30.89-30.89v-24.42h61.79v24.42c0,17.06-13.83,30.89-30.89,30.89Z"/><path class="aa" d="M309.64,582.74c-.02,.51-.08,1.01-.08,1.52,0,20.96,16.99,37.95,37.95,37.95s37.95-16.99,37.95-37.95c0-.51-.06-1.01-.08-1.52-11.71-4.68-24.48-7.28-37.87-7.28s-26.16,2.6-37.87,7.28Z"/><g><ellipse class="af" cx="402.23" cy="652.3" rx="12.24" ry="18.17"/><path class="a`" d="M402.23,672.33c-7.78,0-14.11-8.99-14.11-20.03s6.33-20.03,14.11-20.03,14.11,8.99,14.11,20.03-6.33,20.03-14.11,20.03Zm0-36.34c-5.63,0-10.38,7.47-10.38,16.3s4.75,16.3,10.38,16.3,10.38-7.47,10.38-16.3-4.75-16.3-10.38-16.3Z"/></g></g><g><ellipse class="ad" cx="587.81" cy="331.92" rx="136.43" ry="65.44" transform="translate(169.46 861.71) rotate(-81.16)"/><path class="af" d="M606.53,449.33c3.45-3.55,6.82-7.55,10.06-12l29.6-200.17c-1.83-5.08-3.92-9.74-6.22-13.99l-33.44,226.16Z"/><ellipse class="ad" cx="104.43" cy="331.92" rx="66.12" ry="136.47" transform="translate(-42.48 16.49) rotate(-7.51)"/><path class="af" d="M47.92,235.61l24.67,200.9c3.16,4.54,6.45,8.63,9.85,12.26l-27.88-226.98c-2.43,4.18-4.66,8.79-6.65,13.81Z"/><path class="y" d="M617.93,212.36C617.93,95.08,496.86,0,347.51,0S77.08,95.08,77.08,212.36c0,3.26,.13,6.49,.31,9.72h-.2l.52,4.13c.4,4.83,1.01,9.62,1.81,14.36l14.08,111.55,12.54,99.1c4.05,31.99,22.47,60.51,50.22,77.76,48.92,30.41,116.48,49.23,191.14,49.23s136-17.12,184.29-45.09c28.59-16.56,47.79-45.14,52.46-77.4l30.39-210.23c1.52-7.6,2.51-15.34,2.97-23.19l.03-.21h-.02c.19-3.22,.31-6.46,.31-9.72Z"/><g class="ae"><path class="a`" d="M347.51,124.7c-40.47,0-73.4-32.32-73.4-72.05V7.57c0-1.03,.83-1.86,1.86-1.86s1.86,.84,1.86,1.86V52.65c0,37.67,31.25,68.32,69.67,68.32s69.67-30.65,69.67-68.32V7.57c0-1.03,.83-1.86,1.86-1.86s1.86,.84,1.86,1.86V52.65c0,39.73-32.93,72.05-73.4,72.05Z"/></g><g class="ae"><path class="a`" d="M518.02,542.41s-.09,0-.14,0c-1.03-.08-1.8-.97-1.72-2,7.2-97.39,24.87-328.38,33.52-369.74,9.61-45.97,35.93-57.58,37.05-58.05,.95-.4,2.04,.04,2.44,.99,.4,.95-.04,2.04-.99,2.44h0c-.26,.11-25.68,11.47-34.86,55.38-8.6,41.14-26.26,271.93-33.45,369.25-.07,.98-.89,1.73-1.86,1.73Z"/></g><g class="ae"><path class="a`" d="M173.22,540.45c-.97,0-1.79-.75-1.86-1.73-7.16-96.79-24.74-326.32-33.3-367.28-9.17-43.86-31.93-53.84-32.16-53.94-.95-.4-1.4-1.49-1.01-2.43s1.48-1.4,2.43-1.01c1.01,.41,24.79,10.64,34.39,56.62,8.61,41.18,26.21,270.91,33.37,367.77,.08,1.03-.7,1.92-1.72,2-.05,0-.09,0-.14,0Z"/></g><g><path class="ad" d="M203.29,260.97c-44.01,0-78.08,38.55-72.67,82.22h0l12.54,100.99c2.68,21.59,14.93,40.8,33.32,52.43,45.16,28.56,105.89,44.29,171.03,44.29s120.79-14.48,165.33-40.78c18.8-11.11,31.38-30.06,34.49-52l14.7-103.65c6.25-44.09-27.97-83.51-72.5-83.51H203.29Z"/><path class="a`" d="M347.51,544.63c-65.83,0-127.28-15.93-173.02-44.86-19.44-12.29-32.2-32.38-35.02-55.12l-12.54-100.99c-2.71-21.88,4.11-43.9,18.71-60.42,14.6-16.52,35.62-25.99,57.66-25.99H489.52c22.31,0,43.49,9.66,58.11,26.51,14.62,16.84,21.21,39.17,18.08,61.26l-14.7,103.65c-3.27,23.07-16.5,43-36.28,54.69-45.11,26.63-104.49,41.29-167.22,41.29ZM203.29,264.7c-19.91,0-38.89,8.56-52.07,23.47-13.18,14.92-19.34,34.81-16.9,54.56l12.54,100.99c2.55,20.51,14.07,38.64,31.61,49.74,44.57,28.19,104.6,43.71,169.04,43.71s119.46-14.3,163.43-40.26c17.83-10.53,29.74-28.5,32.69-49.31l14.7-103.65c2.83-19.94-3.12-40.11-16.33-55.32-13.21-15.21-32.33-23.94-52.48-23.94H203.29Z"/></g><path class="aa" d="M604.5,146.25c8.13,47.9-24.72,190.06-31.58,259.07-7.49,75.27-33.16,153.67-225.41,153.67s-236.1-85.75-236.12-85.78c8.07,22.84,23.79,42.59,44.98,55.76,48.92,30.41,116.48,49.23,191.14,49.23s136-17.12,184.29-45.09c28.59-16.56,47.79-45.14,52.46-77.4l30.39-210.23c1.52-7.6,2.51-15.34,2.97-23.19l.03-.21h-.02c.19-3.22,.31-6.46,.31-9.72,0-23.09-4.76-45.3-13.43-66.11Z"/><g><circle class="af" cx="232.7" cy="377.05" r="33.14" transform="translate(-198.46 274.98) rotate(-45)"/><circle class="af" cx="460.12" cy="367.11" r="33.14" transform="translate(-124.82 432.88) rotate(-45)"/></g><path class="af" d="M314.5,420.14c-3.56,0-6.02,3.58-4.69,6.88,3.44,8.47,12.36,21.76,34.57,21.76s29.48-13.44,32.57-21.9c1.2-3.28-1.25-6.73-4.74-6.73h-57.72Z"/></g></g></g></g></g></svg>