<?xml version="1.0" encoding="UTF-8"?><svg xmlns="http://www.w3.org/2000/svg" xmlns:xlink="http://www.w3.org/1999/xlink" viewBox="0 0 775.66 1158"><defs><style>.o{fill:#fff;}.p{fill:url(#l);}.q{isolation:isolate;}.r{fill:url(#m);}.s{fill:url(#f);}.t{fill:url(#g);}.u{fill:#1a1717;}.v{fill:url(#i);}.w{fill:url(#h);}.x{fill:url(#d);}.y{fill:url(#e);}.a`{fill:url(#n);}.aa,.ab{fill:#9bd1ca;}.ac{fill:url(#j);}.ad{fill:url(#k);}.ae{fill:#231f20;}.af{opacity:.8;}.af,.ab{mix-blend-mode:darken;}.ag{fill:#00ffdc;}</style><radialGradient id="d" cx="-415.59" cy="-786.5" fx="-415.59" fy="-786.5" r="67.98" gradientTransform="translate(1890.81 1161.4) rotate(-43.16) scale(1.49)" gradientUnits="userSpaceOnUse"><stop offset=".15" stop-color="#fff"/><stop offset=".44" stop-color="#fcfdfd"/><stop offset=".6" stop-color="#f4f9f8"/><stop offset=".72" stop-color="#e6f2f0"/><stop offset=".83" stop-color="#d3e7e4"/><stop offset=".93" stop-color="#badad6"/><stop offset="1" stop-color="#a4cfc9"/></radialGradient><radialGradient id="e" cx="169.92" cy="477" fx="169.92" fy="477" r="83.91" gradientTransform="matrix(1, 0, 0, 1, 0, 0)" xlink:href="#d"/><radialGradient id="f" cx="506.47" cy="270.52" fx="506.47" fy="270.52" r="46.67" gradientTransform="translate(-145.59 220.82) rotate(.3) scale(1.31)" xlink:href="#d"/><radialGradient id="g" cx="-982.05" cy="128.26" fx="-982.05" fy="128.26" r="46.67" gradientTransform="translate(-339.43 -572.61) rotate(-127.73) scale(1.31 -1.31)" xlink:href="#d"/><radialGradient id="h" cx="294.19" cy="215.01" fx="294.19" fy="215.01" r="66.29" gradientTransform="translate(-72.85 509.57) rotate(-4.56) scale(1.49)" xlink:href="#d"/><radialGradient id="i" cx="419.27" cy="385.07" fx="419.27" fy="385.07" r="65.97" gradientTransform="translate(-105.18 495.25) rotate(-3.46) scale(1.49)" xlink:href="#d"/><radialGradient id="j" cx="340.21" cy="409.32" fx="340.21" fy="409.32" r="57.41" gradientTransform="translate(-183.78 430.95) scale(1.49)" xlink:href="#d"/><radialGradient id="k" cx="335.2" cy="473.7" fx="335.2" fy="473.7" r="43.89" gradientTransform="translate(-183.78 430.95) scale(1.49)" xlink:href="#d"/><radialGradient id="l" cx="251.58" cy="477.5" fx="251.58" fy="477.5" r="42.73" gradientTransform="translate(66.28 430.95) scale(1.49) skewX(9.77)" xlink:href="#d"/><radialGradient id="m" cx="449.79" cy="160.82" fx="449.79" fy="160.82" r="100.2" gradientTransform="translate(-286.4 354.23) rotate(4.04) scale(1.49)" xlink:href="#d"/><radialGradient id="n" cx="469.04" cy="-81.61" fx="469.04" fy="-81.61" r="252.32" gradientTransform="translate(-283.65 322.69) rotate(4.01) scale(1.49 1.46)" xlink:href="#d"/></defs><g class="q"><g id="a"/><g id="b"><g id="c"><g><path class="ae" d="M517.22,617.14l1.36,3.92,1.45,4.04,2.99,8.1c2.02,5.4,4.11,10.78,6.24,16.14,4.27,10.72,8.76,21.33,13.52,31.73,4.76,10.4,9.8,20.61,15.27,30.31,2.74,4.83,5.59,9.54,8.57,13.96,2.97,4.42,6.13,8.53,9.27,11.86l.37,.39c5.65,6,5.37,15.44-.63,21.1-5.58,5.26-14.19,5.33-19.91,.5-5.53-4.7-10.07-9.6-14.27-14.57-4.18-4.97-8.01-10.02-11.66-15.11-7.27-10.2-13.81-20.59-20.04-31.09-6.22-10.51-12.1-21.12-17.74-31.85-2.82-5.36-5.59-10.75-8.3-16.17l-4.03-8.17-1.99-4.12-2.01-4.27c-5.27-11.2-.46-24.55,10.74-29.82,11.2-5.27,24.55-.46,29.82,10.74,.34,.71,.63,1.43,.88,2.16l.08,.23Z"/><path class="ae" d="M333.54,626.56l-1.63,.35-1,.16-1.95,.28-3.39,.32c-1.16,.12-2.15,.12-3.21,.17l-3.14,.11-6.02-.11c-1.98-.08-3.89-.27-5.84-.41-.96-.08-1.94-.14-2.89-.25l-2.82-.38-5.63-.77c-3.66-.7-7.34-1.37-10.94-2.18-3.55-.91-7.11-1.78-10.62-2.76l-10.31-3.29c-3.39-1.17-6.68-2.51-10.02-3.77l-2.49-.96c-.84-.31-1.66-.64-2.45-1.02l-4.83-2.16c-12.97-5.59-25.04-12.48-36.88-19.51-2.92-1.82-5.76-3.74-8.64-5.61-2.86-1.89-5.74-3.74-8.57-5.65l-16.5-12.02c-6.66-4.85-8.12-14.18-3.28-20.83,4.55-6.25,13.06-7.93,19.6-4.09l.7,.42,16.33,9.67c2.76,1.51,5.56,2.94,8.33,4.41,2.78,1.45,5.53,2.96,8.33,4.35,11.28,5.31,22.6,10.43,34.18,14.13l4.32,1.47c.72,.26,1.44,.48,2.17,.66l2.18,.6c2.9,.77,5.78,1.66,8.67,2.35l8.67,1.88c2.88,.5,5.75,.9,8.61,1.37,2.85,.35,5.68,.57,8.5,.86l4.16,.15,2.07,.09c.68,0,1.35-.03,2.02-.04,1.33-.04,2.7-.02,3.99-.1l3.82-.3,1.76-.25c.57-.09,1.22-.14,1.69-.26l1.49-.3,.47-.15c.07-.02,.19-.05,.21-.06-.14,.02-.29,.04-.43,.08,11.96-3.1,24.17,4.09,27.27,16.06,3.1,11.96-4.09,24.17-16.06,27.27Z"/><g><path class="x" d="M586.23,799.29c-14.54-7.11-24.18-21.46-25.16-37.62-1.37-22.57-.94-52.38,9.85-59.38,16.28-10.55,90.37,84.3,103.66,101.56,1.5,1.95,2.13,4.39,1.77,6.82-.68,4.51-2.89,12.18-9.93,20.29-2.69,3.1-7.13,4.06-10.82,2.25l-69.38-33.93Z"/><path class="ab" d="M670.96,824.79c-57.61-23.13-93.47-67.17-110.08-92.13-.61,9.54-.36,19.87,.19,29.03,.98,16.15,10.62,30.49,25.16,37.59l69.38,33.93c3.71,1.82,8.16,.82,10.86-2.31,1.79-2.08,3.27-4.13,4.49-6.11Z"/></g><g><path class="u" d="M704.68,845.63s17.69-1.57,31.9-.01c14.21,1.55,22.64,2,27.63-3.43,4.99-5.43-3.24-14.34-16.41-16.57s-28.81-7.48-38.77-1.82c-9.96,5.66-4.34,21.84-4.34,21.84Z"/><path class="ae" d="M682.2,808.53c-7.57,.41-14.19,5.35-16.66,12.52-1.03,2.99-1.78,6.36-1.66,9.68,.32,9.54,5.2,14.61,19.03,21.07s14.74,16.38,25.68,21.37c10.94,4.99,14.37-5.73,5.56-17.61-8.81-11.88-10.63-19.67,12.41-21.11,23.04-1.44,31.58,16.53,44.61,14.24,13.03-2.3-3.57-23.94-32.42-31.78-21-5.71-42.67-9.11-56.54-8.36Z"/></g><path class="y" d="M112.42,527.69c7.8,14.04,31.52,46.67,44.14,47.07,21.96,.71,44.99-24.87,47.22-36.76,4.75-25.35-57.42-53.84-103.88-97.06-2.74-2.55-7.2-1.9-10.2,.34-3.07,2.29-7.33,5.93-12.45,11.51-2.58,2.81-3.16,6.92-1.37,10.29,8.89,16.72,36.55,64.6,36.55,64.6Z"/><g><path class="ae" d="M73.26,456.35c-14.23,2.46-33.37-13.32-43.24-24.77-9.87-11.45,30.88-49.68,40.7-43.8,9.83,5.89,23.44,34.32,23.96,46.51s-11.62,20.36-21.43,22.05Z"/><path class="ae" d="M76.59,404.08s3.42-2.91,5.3-13.46c1.87-10.56,6.81-22.22,15.89-22.22,11.84,0,.35,10.83,1.22,31.97,.92,22.16-.27,40.97-10.3,48.07-10.02,7.11-27.48-20.44-12.11-44.37Z"/><path class="ae" d="M58.17,396.04s-14.91-19.38-25.59-31.19c-5.34-5.9-9.55-6.95-11.93-4.76-2.01,1.85-2.64,4.94,1.16,11.17,5.92,9.7,16.87,23.68,26.31,34.14l10.05-9.37Z"/><path class="ae" d="M72.74,390.41s-8.82-20.61-16.08-34.77c-3.63-7.09-7.43-9.19-10.29-7.69-2.42,1.26-3.83,4.09-1.77,11.09,3.21,10.9,9.6,25.27,16.01,37.82l12.13-6.44Z"/><path class="ae" d="M50.13,409.09s-18.1-15.08-31.08-24.3c-6.49-4.61-10.83-4.72-12.68-2.07-1.56,2.24-1.51,5.4,3.55,10.66,7.88,8.19,20.94,18.85,32.42,27.03l7.79-11.32Z"/><path class="ae" d="M46.64,424.66s-18.97-11.08-33.29-18.04c-7.16-3.48-11.46-2.87-12.85,.04-1.17,2.46-.6,5.57,5.25,9.93,9.12,6.78,22.4,14.34,35.07,20.51l5.82-12.44Z"/></g><path class="s" d="M548.65,645.86c-8.83,11.18-30.77,5.26-55.75-11.76-24.98-17.01-41.79-36.43-34.7-49.86,7.37-13.95,37.95-12.2,62.93,4.81,24.98,17.01,37.3,44.42,27.52,56.8Z"/><path class="t" d="M242.64,563.51c-3.51,13.81,14.53,27.63,43.22,37.13,28.69,9.49,54.33,11.05,60.68-2.75,6.6-14.33-13.38-37.55-42.07-47.05-28.69-9.49-57.95-2.62-61.83,12.67Z"/><path class="ae" d="M371.1,856.48c-1.36,11.47-2.62,23.18-3.82,34.79-1.19,11.63-2.33,23.28-3.36,34.91-2.05,23.26-3.82,46.56-4.61,69.58v.13c-.29,8.24-7.2,14.7-15.44,14.41-7.69-.26-13.82-6.37-14.38-13.86-1.71-24.04-2.41-47.81-2.83-71.58-.2-11.88-.3-23.75-.34-35.62-.03-11.89,0-23.68,.14-35.7,.15-12.38,10.3-22.29,22.68-22.14,12.38,.15,22.29,10.3,22.14,22.68,0,.79-.06,1.57-.15,2.33v.07Z"/><path class="ae" d="M461.12,849.95c.5,.95,.82,1.62,1.21,2.4l1.08,2.22,2.07,4.38c1.36,2.91,2.66,5.8,3.94,8.7,1.27,2.9,2.54,5.79,3.75,8.7,1.23,2.9,2.44,5.8,3.61,8.72,4.71,11.64,9.11,23.35,13.2,35.15,4.04,11.82,7.93,23.65,11.38,35.62,1.81,5.95,3.4,11.98,5.06,17.97,1.63,6,3.08,12.05,4.63,18.06,2.05,7.98-2.76,16.12-10.74,18.17-7.46,1.92-15.05-2.16-17.69-9.21l-.18-.5c-2.07-5.6-4.04-11.23-6.19-16.8-2.18-5.56-4.26-11.14-6.58-16.63-4.45-11.05-9.31-21.93-14.27-32.72-5.01-10.77-10.3-21.39-15.82-31.83-1.37-2.62-2.77-5.21-4.19-7.78-1.4-2.59-2.85-5.13-4.29-7.68-1.45-2.54-2.91-5.07-4.39-7.54l-2.22-3.67-1.11-1.78c-.35-.55-.76-1.21-1.02-1.58-7.08-10.17-4.58-24.16,5.59-31.25,10.17-7.08,24.16-4.58,31.25,5.59,.51,.73,.97,1.49,1.38,2.25l.54,1.03Z"/><path class="ae" d="M346.3,772.11h91.72v25.95c0,12.27-9.96,22.23-22.23,22.23h-47.25c-12.27,0-22.23-9.96-22.23-22.23v-25.95h0Z"/><g><path class="w" d="M400.39,899.27h0c-42.81,3.41-80.28-28.52-83.69-71.33l-.65-8.19c-.49-6.18,4.12-11.59,10.3-12.08l63.69-5.08,68.96-5.5c6.18-.49,11.59,4.12,12.08,10.3l.65,8.19c3.41,42.81-28.52,80.28-71.33,83.69Z"/><g class="af"><path class="aa" d="M371.89,898.04c-.96,0-1.78-.74-1.86-1.72l-2.93-36.72c-1.32-16.51,11.04-31.01,27.55-32.33,8-.63,15.77,1.88,21.87,7.08,6.11,5.2,9.82,12.47,10.46,20.47l2.93,36.72c.08,1.03-.68,1.93-1.71,2.01-1.03,.08-1.93-.69-2.01-1.71l-2.93-36.72c-.56-7-3.81-13.37-9.16-17.93-5.35-4.56-12.15-6.77-19.15-6.2-14.46,1.15-25.29,13.85-24.13,28.31l2.93,36.72c.08,1.03-.68,1.93-1.71,2.01-.05,0-.1,0-.15,0Z"/></g><path class="ab" d="M471.07,807.38c-.49-6.18-5.9-10.79-12.08-10.3l-.8,.06c-12.84,128.29-108.06,88.5-108.64,88.25,14.3,10.05,32.05,15.36,50.84,13.86,42.81-3.41,74.74-40.88,71.33-83.69l-.65-8.19Z"/><path class="ae" d="M469.68,806.22l-152.47,12.16c-3.43,.27-6.43-2.29-6.71-5.71h0c-.27-3.43,2.29-6.43,5.71-6.71l152.47-12.16c3.43-.27,6.43,2.29,6.71,5.71h0c.27,3.43-2.29,6.43-5.71,6.71Z"/></g><g><path class="v" d="M502.05,964.33h0c20.19,17.35,50.64,69.1,65.06,132.95,1.54,6.8-2.93,12.75-9.88,13.18l-57.11,3.46c-6.96,.42-13.71-4.86-14.94-11.67-7.82-43.15-20.87-80.93-17.37-107.34,2.28-17.19,16.11-29.47,34.24-30.57Z"/><path class="ab" d="M502.05,964.33c-11.75,.71-21.68,6.15-27.84,14.55,4.9,9.62,16.61,25.47,41.95,30.01,8.31,1.49,12.16-2.24,13.18-8.9-9.62-16.36-19.26-28.76-27.29-35.66Z"/><ellipse class="o" cx="507.04" cy="982.58" rx="13.39" ry="27.93" transform="translate(-324.56 253.89) rotate(-21.48)"/><path class="ab" d="M479.67,973.04h0c-6.37,5.4-10.67,12.96-11.85,21.87-3.5,26.41,9.55,64.19,17.37,107.34,1.23,6.82,7.98,12.09,14.94,11.67l18.71-1.13c-26.46-47.23-39.17-139.74-39.17-139.74Z"/></g><g><path class="ac" d="M333.09,960.96h0c-16.49,18.77-25.01,72.97-26.43,138.41-.15,6.97,5.47,12.72,12.44,12.72h57.21c6.97,0,12.59-5.75,12.44-12.72-.95-44.11-6.83-83.11-15.61-109.6-5.71-17.24-21.88-28.81-40.04-28.81Z"/><path class="ab" d="M358.75,969.66c-7.2-5.5-16.15-8.7-25.66-8.7-1.6,1.82-3.1,4.07-4.55,6.54l-3.33,38.3s25.92,8.72,33.54-36.15Z"/><ellipse class="o" cx="331.83" cy="979.72" rx="27.42" ry="13.82" transform="translate(-683.93 1175.14) rotate(-82.18)"/><path class="ab" d="M359.31,970.1c1.43,28.5,4.25,96.06,1.63,141.99h15.36c6.97,0,12.59-5.75,12.44-12.72-.95-44.11-6.83-83.11-15.61-109.6-2.64-7.97-7.54-14.71-13.82-19.68Z"/></g><g><path class="ad" d="M288.18,1158h99.69c5.7,0,10.15-4.97,9.52-10.63-2.61-23.57-13.02-38.26-13.02-38.26,0,0-17.33,2.76-26.73,.19-15.66-4.27-24.8-14.26-39.77-9.93-9.64,2.79-32.07,19.04-39.02,46.89-1.49,5.97,3.17,11.74,9.33,11.74Z"/><path class="ab" d="M352.54,1158h35.33c5.7,0,10.15-4.97,9.52-10.63-2.61-23.57-13.02-38.26-13.02-38.26,0,0-17.33,2.76-26.73,.19-15.66-4.27-24.8-14.26-39.77-9.93-3.61,1.05-9.03,3.99-14.75,8.72,29.78-8.61,46.52-1.58,55.63,20.06,12.52,29.75-6.21,29.84-6.21,29.84Z"/><ellipse class="ae" cx="384.54" cy="1125.23" rx="12.54" ry="19.54" transform="translate(-241.83 114.45) rotate(-12.92)"/></g><g><path class="p" d="M598.74,1158h-99.69c-5.7,0-11-4.97-11.35-10.63-1.45-23.57,6.44-38.26,6.44-38.26,0,0,17.81,2.76,26.77,.19,14.93-4.27,22.34-14.26,38.06-9.93,10.12,2.79,38.26,15.13,47.09,46.89,1.74,6.24-1.15,11.74-7.31,11.74Z"/><path class="ab" d="M520.25,1141.93c-9.84-16.07,15.23-38.84,15.23-38.84h0c-4.35,2.17-8.92,4.6-14.57,6.22-8.96,2.57-26.77-.19-26.77-.19,0,0-7.89,14.69-6.44,38.26,.35,5.66,5.66,10.63,11.35,10.63h57.83s-26.79,0-36.63-16.07Z"/><ellipse class="ae" cx="496.74" cy="1125.23" rx="12.71" ry="19.28" transform="translate(-78.39 37.98) rotate(-4.06)"/></g><g><path class="r" d="M490.23,681.03c-3.97,56.26-53.96,115.21-110.22,111.24-56.26-3.97-97.48-69.35-93.51-125.61,3.97-56.26,52.79-98.65,109.05-94.68,56.26,3.97,98.65,52.79,94.68,109.05Z"/><path class="ab" d="M382.14,762.08c-53.75-3.79-94.3-55.87-94.82-102.85-.35,2.45-.65,4.92-.83,7.42-3.97,56.26,37.25,121.64,93.51,125.61,56.26,3.97,106.25-54.98,110.22-111.24,.18-2.51,.23-4.99,.23-7.46-7.11,46.44-54.56,92.31-108.31,88.52Z"/><g class="af"><path class="aa" d="M436.24,774.78s-.09,0-.13,0c-1.03-.07-1.8-.96-1.73-1.99l12.61-178.71c.07-1.03,.97-1.79,1.99-1.73,1.03,.07,1.8,.96,1.73,1.99l-12.61,178.71c-.07,.98-.89,1.73-1.86,1.73Z"/></g><path class="ae" d="M393.32,604.77h0c-17.02-1.2-29.84-15.97-28.64-32.99l1.72-24.36,61.63,4.35-1.72,24.36c-1.2,17.02-15.97,29.84-32.99,28.64Z"/><path class="ab" d="M357.26,576.58c-.06,.51-.15,1-.18,1.51-1.47,20.91,14.28,39.05,35.18,40.52,20.91,1.47,39.05-14.28,40.52-35.18,.04-.51,.01-1.01,.03-1.52-11.36-5.49-23.91-8.99-37.26-9.93-13.35-.94-26.27,.76-38.29,4.6Z"/><g><ellipse class="ag" cx="444.73" cy="652.48" rx="18.17" ry="12.24" transform="translate(-237.43 1050.2) rotate(-85.97)"/><path class="aa" d="M444.03,672.49c-.24,0-.47,0-.71-.02-3.9-.28-7.36-2.71-9.75-6.85-2.25-3.9-3.29-8.92-2.92-14.13,.78-11.02,7.74-19.54,15.48-18.99,3.9,.28,7.36,2.71,9.75,6.85,2.25,3.9,3.29,8.92,2.92,14.13-.75,10.68-7.31,19.02-14.78,19.02Zm1.4-36.29c-5.44,0-10.45,6.97-11.05,15.55-.32,4.47,.55,8.74,2.43,12.01,1.75,3.03,4.15,4.8,6.78,4.99,5.62,.4,10.88-6.72,11.5-15.53,.32-4.47-.55-8.74-2.43-12.01-1.75-3.03-4.15-4.8-6.78-4.99-.15-.01-.3-.02-.45-.02Z"/></g></g><g><ellipse class="ae" cx="653.09" cy="348.78" rx="136.43" ry="65.44" transform="translate(167.72 907.88) rotate(-77.14)"/><path class="ag" d="M663.55,467.21c3.69-3.29,7.33-7.05,10.88-11.27l43.53-197.61c-1.47-5.19-3.23-9.99-5.22-14.39l-49.19,223.27Z"/><ellipse class="ae" cx="170.89" cy="314.95" rx="66.12" ry="136.47" transform="translate(-18.88 11) rotate(-3.5)"/><path class="ag" d="M121.26,214.92l10.55,202.14c2.83,4.75,5.83,9.06,8.97,12.92l-11.92-228.37c-2.72,4-5.27,8.44-7.6,13.31Z"/><path class="a`" d="M691.5,231.62C699.71,114.63,585.59,11.31,436.6,.86S160.19,76.78,151.98,193.77c-.23,3.25-.33,6.49-.37,9.72h-.2l.23,4.14c.06,4.85,.33,9.67,.8,14.45l6.24,112.26,5.57,99.73c1.8,32.19,18.18,61.93,44.65,81.08,46.67,33.76,112.75,57.26,187.23,62.48,71.04,4.98,136.86-7.56,186.99-32.09,29.68-14.52,50.84-41.69,57.74-73.54l45.03-207.59c2.04-7.48,3.58-15.13,4.59-22.92l.04-.2h-.02c.41-3.2,.76-6.42,.99-9.67Z"/><g class="af"><path class="aa" d="M433.16,125.44c-1.75,0-3.51-.06-5.28-.19-40.37-2.83-70.95-37.38-68.17-77.01l3.16-44.97c.07-1.03,.95-1.8,1.99-1.73,1.03,.07,1.8,.96,1.73,1.99l-3.16,44.97c-2.64,37.58,26.39,70.34,64.72,73.03,1.68,.12,3.36,.18,5.02,.18,36.17,0,66.74-27.52,69.26-63.46l3.15-44.97c.07-1.03,.95-1.8,1.99-1.73,1.03,.07,1.8,.96,1.73,1.99l-3.15,44.97c-2.66,37.89-34.87,66.92-72.98,66.93Z"/></g><g class="af"><path class="aa" d="M568.86,553.88c-.09,0-.18,0-.27-.02-1.02-.15-1.73-1.09-1.58-2.11,14-96.65,47.79-325.83,59.31-366.49,12.8-45.18,39.87-54.92,41.02-55.32,.98-.33,2.04,.19,2.37,1.16,.33,.97-.19,2.03-1.16,2.37-.43,.15-26.46,9.78-38.64,52.81-11.46,40.44-45.22,269.43-59.21,366.01-.13,.93-.93,1.6-1.84,1.6Z"/></g><g class="af"><path class="aa" d="M225.05,527.79c-1.03,0-1.86-.83-1.87-1.86-.37-97.06-1.85-327.27-7.52-368.71-6.1-44.6-28.08-55.94-28.3-56.05-.92-.46-1.3-1.57-.85-2.5,.46-.92,1.58-1.3,2.5-.85,.98,.48,23.98,12.35,30.35,58.89,5.7,41.67,7.18,272.08,7.55,369.21,0,1.03-.83,1.87-1.86,1.87h0Z"/></g><g><path class="ae" d="M274.47,251.09c-43.9-3.08-80.59,32.99-78.25,76.94h0l5.44,101.62c1.16,21.72,12.04,41.74,29.57,54.63,43.05,31.65,102.53,51.59,167.51,56.15,61.92,4.34,121.5-5.99,167.78-29.11,19.54-9.76,33.4-27.79,38.04-49.46l21.92-102.36c9.32-43.55-22.05-85.26-66.48-88.38l-285.53-20.03Z"/><path class="aa" d="M426.29,545.13c-9.2,0-18.47-.32-27.8-.98-65.67-4.61-125.86-24.8-169.46-56.86-18.53-13.62-29.86-34.56-31.08-57.44l-5.44-101.62c-1.17-22.02,7.17-43.51,22.89-58.96,15.72-15.46,37.35-23.43,59.34-21.89l285.53,20.03c22.25,1.56,42.71,12.68,56.11,30.51,13.41,17.83,18.42,40.56,13.75,62.37l-21.92,102.36c-4.87,22.78-19.46,41.74-40.02,52.01-39.87,19.92-89.46,30.47-141.9,30.47ZM269.35,254.64c-18.16,0-35.69,7.12-48.73,19.94-14.2,13.96-21.73,33.37-20.67,53.25l5.44,101.62c1.1,20.64,11.33,39.53,28.05,51.83,42.48,31.24,101.28,50.92,165.56,55.43,61.26,4.3,120.17-5.9,165.85-28.72,18.52-9.25,31.66-26.35,36.06-46.9l21.92-102.36c4.22-19.7-.31-40.23-12.42-56.33-12.11-16.1-30.58-26.14-50.67-27.55l-285.53-20.03c-1.62-.11-3.25-.17-4.86-.17Z"/></g><path class="ab" d="M682.72,164.73c4.76,48.35-37.96,187.86-49.64,256.23-12.74,74.56-43.83,150.97-235.61,137.52-191.74-13.45-229.52-102.06-229.53-102.09,6.45,23.34,20.75,44.15,40.96,58.77,46.67,33.76,112.75,57.26,187.23,62.48,71.04,4.98,136.86-7.56,186.99-32.09,29.68-14.52,50.84-41.69,57.74-73.54l45.03-207.59c2.04-7.48,3.58-15.13,4.59-22.92l.04-.2h-.02c.41-3.2,.76-6.42,.99-9.67,1.62-23.03-1.57-45.52-8.77-66.89Z"/><g><path class="ag" d="M330.24,371.37c-1.28,18.26-14.49,13.56-32.75,12.28-18.26-1.28-34.65,1.34-33.36-16.92,1.28-18.26,17.12-32.02,35.37-30.74,18.26,1.28,32.02,17.12,30.74,35.37Z"/><path class="ag" d="M557.72,382.16c-1.28,18.26-14.52,15.83-32.78,14.55-18.26-1.28-34.61-.93-33.33-19.19,1.28-18.26,17.12-32.02,35.37-30.74,18.26,1.28,32.02,17.12,30.74,35.37Z"/></g><path class="ag" d="M387.97,415.62c-8.95-.63-16.23,7.27-14.69,16.11,2.45,14.12,9.95,31.88,32.18,32.43,22.26,.55,31.32-15.31,35.01-28.28,2.39-8.4-3.73-16.84-12.44-17.45-11.76-.83-28.1-1.97-40.05-2.81Z"/></g></g></g></g></g></svg>